<?xml version="1.0" encoding="UTF-8" standalone="no"?>
<!-- Created with Inkscape (http://www.inkscape.org/) -->

<svg
   xmlns:dc="http://purl.org/dc/elements/1.1/"
   xmlns:cc="http://creativecommons.org/ns#"
   xmlns:rdf="http://www.w3.org/1999/02/22-rdf-syntax-ns#"
   xmlns:svg="http://www.w3.org/2000/svg"
   xmlns="http://www.w3.org/2000/svg"
   xmlns:sodipodi="http://sodipodi.sourceforge.net/DTD/sodipodi-0.dtd"
   xmlns:inkscape="http://www.inkscape.org/namespaces/inkscape"
   width="590.55371"
   height="125.84238"
   id="svg2"
   version="1.1"
   inkscape:version="0.48.4 r9939"
   sodipodi:docname="nethserver-samba-profiles.svg">
  <defs
     id="defs4" />
  <sodipodi:namedview
     id="base"
     pagecolor="#ffffff"
     bordercolor="#666666"
     borderopacity="1.0"
     inkscape:pageopacity="0.0"
     inkscape:pageshadow="2"
     inkscape:zoom="1"
     inkscape:cx="300.1899"
     inkscape:cy="65.442937"
     inkscape:document-units="px"
     inkscape:current-layer="layer1"
     showgrid="false"
     units="mm"
     fit-margin-left="3"
     fit-margin-top="3"
     fit-margin-right="3"
     fit-margin-bottom="3"
     inkscape:window-width="786"
     inkscape:window-height="439"
     inkscape:window-x="0"
     inkscape:window-y="59"
     inkscape:window-maximized="0" />
  <metadata
     id="metadata7">
    <rdf:RDF>
      <cc:Work
         rdf:about="">
        <dc:format>image/svg+xml</dc:format>
        <dc:type
           rdf:resource="http://purl.org/dc/dcmitype/StillImage" />
        <dc:title></dc:title>
      </cc:Work>
    </rdf:RDF>
  </metadata>
  <g
     inkscape:label="Layer 1"
     inkscape:groupmode="layer"
     id="layer1"
     transform="translate(-95.788916,-445.37242)">
    <path
       style="fill:none;stroke:#000000;stroke-width:2.33699989;stroke-miterlimit:4;stroke-opacity:1;stroke-dasharray:none"
       d="m 107.66841,152.15691 c 2.51334,25.94226 2.5065,52.09649 1.54232,78.12937 -0.0614,1.65779 -2.27522,20.34275 -1.43215,20.72213 2.11801,0.95311 30.48629,-3.26671 35.91395,-3.17277 27.38812,0.47403 54.43983,-1.86548 81.7428,-2.87532 16.72407,-0.61856 44.02485,1.1995 56.73523,-1.78468 -1.40514,-29.06862 -1.87282,-64.26624 -1.87282,-91.71277 -8.9873,-3.91383 -20.60057,-0.61469 -30.29551,-1.48724 -47.26754,-4.25407 -95.26206,5.76452 -142.33382,2.18128 z"
       id="path3775"
       inkscape:connector-curvature="0"
       transform="translate(0,308.2677)" />
    <path
       style="fill:none;stroke:#000000;stroke-width:2.33699989;stroke-miterlimit:4;stroke-opacity:1;stroke-dasharray:none"
       d="m 674.02923,246.74506 c -11.6865,1.57762 -26.52355,-0.64329 -39.21892,-0.0992 -39.60764,1.69747 -80.40145,0.74328 -119.97022,0 4.70806,-26.48287 0.85959,-57.51066 3.63546,-85.16895 35.33844,10.87169 75.77341,3.57659 112.3688,2.47873 12.39592,-0.37188 37.03791,-0.0298 43.51537,-1.48724 -0.144,4.63356 0.15313,9.29501 0.0703,13.91716 -0.0708,3.95191 -0.71853,7.88115 -0.80132,11.83028 -0.15363,7.328 -0.60453,14.6543 -0.72427,21.9824 -0.086,5.26107 0.14705,10.5061 0.0462,15.76908 -0.0931,4.86174 0.20849,9.48179 0.67804,14.27122 0.0472,0.48199 1.1272,6.60166 0.87837,6.60166 -0.16241,0 -0.31644,-0.0771 -0.47784,-0.0951 z"
       id="path3777"
       inkscape:connector-curvature="0"
       transform="translate(0,308.2677)" />
    <path
       style="fill:#000000;fill-opacity:1;stroke:#000000;stroke-width:2.33699989;stroke-miterlimit:4;stroke-opacity:1;stroke-dasharray:none"
       id="path3795"
       d="m 146.29115,190.46364 c -0.80491,4.54712 -0.98897,9.17807 -1.17411,13.78383 -0.22575,5.26834 -0.70962,10.52001 -1.08682,15.77842 -0.43617,1.18687 0.2596,3.05697 -0.52748,4.15985 -0.23412,0.32806 -0.61918,0.34855 -0.9711,0.44707 0,0 -0.98107,0.10885 -0.98107,0.10885 l 0,0 c -0.10067,0.0149 -0.71909,0.22493 -0.8734,-0.0451 -0.46152,-0.80766 0.88217,-3.1969 0.5296,-4.04139 0.66337,-5.22316 1.13827,-10.46874 1.32356,-15.73232 0.21332,-4.70718 0.39842,-9.41738 1.37057,-14.0464 0,0 2.39025,-0.4128 2.39025,-0.4128 z"
       inkscape:connector-curvature="0"
       transform="translate(0,308.2677)" />
    <path
       style="fill:#000000;fill-opacity:1;stroke:#000000;stroke-width:2.33699989;stroke-miterlimit:4;stroke-opacity:1;stroke-dasharray:none"
       id="path3797"
       d="m 160.48151,200.30539 c 4.4928,-0.16404 9.32106,0.39141 12.82251,3.52366 0.62692,0.56082 1.10633,1.26736 1.6595,1.90104 2.83911,4.84092 1.205,8.6034 -1.86495,12.7585 -2.88793,3.36181 -5.47717,4.96488 -9.86205,5.00371 -1.48973,0.0273 -2.97941,-0.39183 -4.46733,-0.2602 -2.05995,0.59386 -1.35546,-3.46172 -1.3092,-4.3052 0.35808,-7.91256 0.55196,-15.8319 0.64157,-23.75174 0.006,-3.79547 -0.0583,-7.59458 -0.36564,-11.3792 -0.10739,-1.32236 -0.41359,-2.59648 -0.0867,-3.89706 0.29031,0.13428 0.58062,0.26855 0.87094,0.40283 0,0 -0.11864,0.018 -0.11864,0.018 l 0,0 c 0.4066,-0.42211 0.81319,-0.84421 1.21979,-1.26632 0.81051,1.16489 0.66249,2.58604 0.6605,3.96127 -0.006,3.86798 -0.2045,7.73524 -0.20796,11.60335 -0.0941,7.83851 -0.0952,15.67945 0.19072,23.5146 0.0189,0.54034 0.0414,1.08057 0.0566,1.62103 0.0174,0.61797 0.0458,1.25428 -0.0453,1.21968 -0.34965,-0.13282 -0.61671,-0.42338 -0.92424,-0.63628 -0.10317,-0.0714 0.5533,0.38373 0.33907,0.16359 1.38693,0.31316 2.83791,0.36432 4.24919,0.48347 2.70237,-0.0575 4.94607,-0.95482 6.96116,-2.81356 2.93253,-3.49333 4.6811,-6.67072 2.59234,-11.15767 -0.44623,-0.60403 -0.8182,-1.27072 -1.33868,-1.81208 -3.12752,-3.253 -7.75534,-3.85332 -11.99901,-3.1028 0,0 0.32579,-1.79266 0.32579,-1.79266 z"
       inkscape:connector-curvature="0"
       transform="translate(0,308.2677)" />
    <path
       style="fill:#000000;fill-opacity:1;stroke:#000000;stroke-width:2.33699989;stroke-miterlimit:4;stroke-opacity:1;stroke-dasharray:none"
       id="path3799"
       d="m 182.68002,195.56754 c 5.41321,-0.85867 9.35677,1.5423 12.18837,6.13194 0.6024,0.9764 1.02407,2.05335 1.53611,3.08003 1.64946,4.62084 2.04372,9.8451 -0.99358,14.01684 -0.4844,0.66532 -1.11045,1.21494 -1.66568,1.82241 -3.23121,2.80665 -7.18374,4.76315 -11.50384,3.75559 -2.75991,-1.31507 -3.21935,-4.00537 -2.96452,-6.78699 0.91497,-3.59345 2.70184,-5.59167 6.49937,-5.07941 2.4875,0.87654 4.0163,3.1429 6.13966,4.59144 0.9726,0.18474 1.4899,1.53295 2.30307,1.88491 0.3081,0.13336 0.67132,0.0132 1.00699,0.0198 0,0 -0.0313,0.11583 -0.0313,0.11583 l 0,0 c -1.69244,0.12671 -3.21094,0.91438 -4.82448,-0.0937 -1.85146,-1.34503 -3.29801,-3.31955 -5.45124,-4.16274 -2.15412,-0.11789 -2.48321,0.43707 -3.15148,2.19192 -0.25836,1.82829 -0.18484,3.81786 1.6496,4.77634 2.88301,0.71539 5.45566,-0.48991 8.01892,-1.72868 0.54985,-0.49831 1.1575,-0.93946 1.64955,-1.49492 3.19502,-3.60668 3.07942,-8.46223 1.73315,-12.815 -0.44922,-0.9794 -0.80409,-2.00785 -1.34765,-2.93821 -1.84881,-3.16443 -4.94089,-5.85236 -8.8221,-5.56398 -0.70944,0.0527 -1.38262,0.3357 -2.07393,0.50355 0,0 0.10505,-2.22696 0.10505,-2.22696 z"
       inkscape:connector-curvature="0"
       transform="translate(0,308.2677)" />
    <path
       style="fill:#000000;fill-opacity:1;stroke:#000000;stroke-width:2.33699989;stroke-miterlimit:4;stroke-opacity:1;stroke-dasharray:none"
       id="path3801"
       d="m 209.30645,193.77032 c -2.20431,3.60234 -4.30621,8.10906 -3.26707,12.46294 0.13727,0.57514 0.46238,1.08844 0.69356,1.63265 2.47733,2.96012 5.10862,1.74225 7.73512,-0.25771 2.59385,-2.52077 4.2431,-5.85154 5.58288,-9.17647 0.49309,-1.46417 0.36612,-2.5665 3.02994,-1.26677 0.33853,0.16518 -0.45332,0.60373 -0.64383,0.92868 -0.32196,0.54919 -0.59396,1.12618 -0.89094,1.68927 -2.80819,5.72541 -4.60633,11.83705 -6.06973,18.02018 -0.99371,4.85869 -2.26841,9.64983 -3.47476,14.45782 -0.346,1.45246 -0.50623,2.92218 -1.72541,3.87618 0,0 -0.9794,0.19817 -0.9794,0.19817 l 0,0 c -0.16753,-0.10454 -0.39875,-0.14565 -0.50258,-0.31361 -0.57711,-0.93362 0.29797,-2.51981 0.36365,-3.41423 1.27755,-4.82659 2.6977,-9.61538 3.8316,-14.47963 1.56377,-6.24545 3.27741,-12.46281 5.93214,-18.35047 0.25391,-0.59173 0.51012,-1.18247 0.76175,-1.77517 0.16893,-0.39794 0.12134,-0.98796 0.49991,-1.19672 4.38506,-2.41808 3.26257,-0.37596 2.46486,1.56771 -1.9854,4.34541 -4.13982,8.6835 -7.90636,11.79239 -0.58948,0.38009 -1.14047,0.82785 -1.76845,1.14027 -2.30661,1.14756 -5.20878,1.20345 -7.2106,-0.61909 -0.49109,-0.44711 -0.8182,-1.04635 -1.2273,-1.56952 -0.24623,-0.69776 -0.59249,-1.36793 -0.73871,-2.09326 -0.93502,-4.63828 1.15653,-9.2907 2.92369,-13.44047 0,0 2.58604,0.18686 2.58604,0.18686 z"
       inkscape:connector-curvature="0"
       transform="translate(0,308.2677)" />
    <path
       style="fill:#000000;fill-opacity:1;stroke:#000000;stroke-width:2.33699989;stroke-miterlimit:4;stroke-opacity:1;stroke-dasharray:none"
       id="path3803"
       d="m 537.29359,190.37448 c -0.42957,9.20439 -0.42821,18.42433 -0.41153,27.6369 0.42648,6.02648 -0.26731,12.59754 2.06388,18.33359 0.57862,-0.96324 -0.0892,0.2287 -2.56142,0.55552 -0.13987,0.0185 0.16181,-0.24222 0.18283,-0.38174 0.0625,-0.41484 0.0615,-0.83742 0.064,-1.25693 0.008,-1.34416 -0.0976,-2.6259 -0.18078,-3.9701 -0.42864,-5.34663 -0.9678,-10.68347 -1.4274,-16.02758 -0.0267,-3.23314 -1.10625,-6.8936 0.28058,-10.003 0.22099,-0.49547 0.56383,-0.92703 0.84575,-1.39055 0.72067,-0.68916 1.3762,-1.45362 2.16201,-2.06746 2.26641,-1.77043 6.1553,-2.55179 8.94349,-2.88533 5.0028,0.38514 5.13447,3.89364 4.45006,8.0062 -1.32828,4.30221 -4.18016,8.12504 -8.37553,10.01365 -0.72411,0.32597 -1.49644,0.53202 -2.24467,0.79804 -2.67921,0.58987 -5.68032,0.83863 -7.64881,-1.46869 -0.35309,-0.41387 -0.55854,-0.93374 -0.8378,-1.40061 0,0 0.0876,-0.082 0.0876,-0.082 l 0,0 c 0.3942,0.27963 0.73922,0.64656 1.18261,0.83889 2.27286,0.98592 5.08073,0.33332 7.33176,-0.25753 4.38742,-1.81609 6.42834,-3.39188 8.12191,-8.04586 0.58127,-2.7597 1.13989,-5.87371 -2.54089,-6.14191 -2.35885,0.28153 -4.62392,0.87449 -6.70066,2.07564 -1.57733,0.91231 -0.79071,0.99895 -1.51075,0.88406 -0.27726,0.33059 -0.60124,0.62705 -0.83177,0.99176 -1.72548,2.72979 -0.68283,6.46326 -0.74921,9.45205 0.40001,5.30904 0.88354,10.61505 1.74155,15.87291 0.2764,1.7671 0.64144,3.54682 0.82695,5.32711 0.0441,0.42291 0.39444,0.99078 0.0767,1.27331 -0.81927,0.72843 -1.92647,1.14682 -3.00698,1.33206 -0.28075,0.0481 -0.27946,-0.49644 -0.4192,-0.74467 -0.85866,-6.358 -0.75068,-12.79769 -0.81288,-19.19816 0.006,-9.10263 0.015,-18.22164 -0.63823,-27.30529 0,0 2.53682,-0.76426 2.53682,-0.76426 z"
       inkscape:connector-curvature="0"
       transform="translate(0,308.2677)" />
    <path
       style="fill:#000000;fill-opacity:1;stroke:#000000;stroke-width:2.33699989;stroke-miterlimit:4;stroke-opacity:1;stroke-dasharray:none"
       id="path3805"
       d="m 560.10871,198.22217 c 0.59091,5.40576 1.05273,10.84905 2.56109,16.09087 0.24273,0.54664 0.57367,1.52779 1.07173,2.01032 0.0696,0.0674 0.34552,0.13684 0.28389,0.0621 -0.21315,-0.25845 -0.44329,-0.73246 -0.76764,-0.64867 -0.60802,0.15705 -0.84665,1.00429 -1.43708,1.21817 -0.23364,0.0846 0.0732,-0.49158 0.10976,-0.73737 0.10858,-3.90234 0.11001,-7.78852 0.62355,-11.66501 0.49884,-2.86006 1.66549,-3.97117 4.06917,-5.3503 0,0 0.0169,0.1188 0.0169,0.1188 l 0,0 c -1.10898,1.36394 -1.41225,3.1089 -1.85455,4.79034 -0.54133,3.78198 -0.56941,7.57704 -0.19011,11.38081 0.10993,1.72525 -0.72347,4.29956 -2.68762,2.61966 -0.24824,-0.21231 -0.32714,-1.47293 -0.3479,-1.61356 -0.0768,-0.52032 -0.16892,-1.03827 -0.25338,-1.5574 -1.01992,-5.39197 -1.48354,-10.85717 -2.31669,-16.27389 0,0 1.11888,-0.44488 1.11888,-0.44488 z"
       inkscape:connector-curvature="0"
       transform="translate(0,308.2677)" />
    <path
       style="fill:#000000;fill-opacity:1;stroke:#000000;stroke-width:2.33699989;stroke-miterlimit:4;stroke-opacity:1;stroke-dasharray:none"
       id="path3807"
       d="m 574.78411,206.02986 c 3.18744,-2.81516 7.39735,-4.47334 11.16377,-1.57713 0.65975,0.50732 1.16122,1.19255 1.74183,1.78882 1.85553,2.89131 3.37427,7.50684 1.08911,10.664 -0.65681,0.90744 -1.5319,1.63482 -2.29785,2.45224 -0.58736,0.20102 -1.14794,0.5123 -1.76207,0.60305 -2.90613,0.42945 -5.56692,-1.54787 -7.08555,-3.84448 -0.46129,-0.69762 -0.77065,-1.48458 -1.15597,-2.22686 -1.49783,-3.65303 -0.54977,-7.03805 0.56216,-10.61419 0,0 0.11919,-0.0139 0.11919,-0.0139 l 0,0 c -0.18059,0.82004 -0.48811,1.62215 -0.54175,2.46012 -0.15141,2.36523 0.74766,4.75698 1.67892,6.86672 1.70458,2.56459 4.24782,5.76931 7.62962,3.93256 0.19218,0.71775 0.13115,0.7696 1.0161,-1.04061 0.88176,-1.80368 0.87222,-4.04518 0.29665,-5.93177 -0.2176,-0.71322 -0.59894,-1.36579 -0.89841,-2.04869 -0.45774,-0.56284 -0.83432,-1.20284 -1.37323,-1.68853 -2.63576,-2.37549 -6.09699,-1.55711 -8.56927,0.571 0,0 -1.61325,-0.35234 -1.61325,-0.35234 z"
       inkscape:connector-curvature="0"
       transform="translate(0,308.2677)" />
    <path
       style="fill:#000000;fill-opacity:1;stroke:#000000;stroke-width:2.33699989;stroke-miterlimit:4;stroke-opacity:1;stroke-dasharray:none"
       id="path3809"
       d="m 587.07092,240.34826 c 3.51185,-5.33702 6.11144,-11.15215 7.9497,-17.25323 1.87161,-7.09189 0.1568,-13.33319 -2.35186,-19.96943 -1.74409,-4.46092 -4.12373,-8.61295 -3.89505,-13.51983 1.05047,-3.94272 4.47006,-6.53946 8.09771,-8.0381 1.60036,-0.45072 3.25812,-0.42814 4.899,-0.61315 0,0 -0.025,0.11736 -0.025,0.11736 l 0,0 c -0.53072,0.061 -1.08452,0.0167 -1.59217,0.18304 -0.90297,0.29594 -2.44539,1.42677 -3.20472,1.9435 -2.20588,1.6237 -4.5751,3.23534 -5.67319,5.84766 -0.73748,4.56236 1.88784,8.8096 3.31824,12.99563 2.53001,6.76774 4.50624,13.63571 2.53244,20.85535 -1.89367,6.16855 -4.57196,11.976 -7.74332,17.59545 0,0 -2.31174,-0.14425 -2.31174,-0.14425 z"
       inkscape:connector-curvature="0"
       transform="translate(0,308.2677)" />
    <path
       style="fill:#000000;fill-opacity:1;stroke:#000000;stroke-width:2.33699989;stroke-miterlimit:4;stroke-opacity:1;stroke-dasharray:none"
       id="path3811"
       d="m 587.31195,213.48243 c 3.11136,-0.41273 6.10134,-1.7467 9.25542,-1.88773 6.02664,-0.26947 -1.99814,0.54753 3.15354,-0.0339 0,0 -0.0172,0.11875 -0.0172,0.11875 l 0,0 c -3.37371,1.09266 0.69705,-0.32224 -3.32757,1.4765 -3.00142,1.34144 -6.31635,1.78403 -9.3758,2.96252 0,0 0.31166,-2.63619 0.31166,-2.63619 z"
       inkscape:connector-curvature="0"
       transform="translate(0,308.2677)" />
    <path
       style="fill:#000000;fill-opacity:1;stroke:#000000;stroke-width:2.33699989;stroke-miterlimit:4;stroke-opacity:1;stroke-dasharray:none"
       id="path3813"
       d="m 610.69675,204.85549 c -0.48317,4.25968 0.0879,8.55031 -0.12566,12.81204 -0.32091,0.82854 -0.13633,0.55655 -0.81782,1.08017 0,0 -0.11524,0.0335 -0.11524,0.0335 l 0,0 c -0.68264,-0.12785 -0.4862,0.0499 -0.81782,-0.60497 -0.21866,-4.23697 0.36214,-8.50421 -0.12565,-12.73903 0,0 2.00219,-0.58169 2.00219,-0.58169 z"
       inkscape:connector-curvature="0"
       transform="translate(0,308.2677)" />
    <path
       style="fill:#000000;fill-opacity:1;stroke:#000000;stroke-width:2.33699989;stroke-miterlimit:4;stroke-opacity:1;stroke-dasharray:none"
       id="path3815"
       d="m 622.82478,185.40124 c -1.09554,8.9022 -1.40052,17.88502 -1.67875,26.84372 -0.0896,6.74975 -0.0396,1.59985 -0.0553,7.43765 -0.004,1.58061 0.14062,3.00454 -0.56298,4.43185 0,0 -1.38761,0.36549 -1.38761,0.36549 l 0,0 c -0.70122,-1.25589 -0.32371,-2.86852 -0.22083,-4.22572 0.42947,-5.66552 0.12033,-1.06661 0.52506,-7.5643 0.47181,-8.8633 0.82939,-17.7427 0.65982,-26.62012 0,0 2.72057,-0.66857 2.72057,-0.66857 z"
       inkscape:connector-curvature="0"
       transform="translate(0,308.2677)" />
    <path
       style="fill:#000000;fill-opacity:1;stroke:#000000;stroke-width:2.33699989;stroke-miterlimit:4;stroke-opacity:1;stroke-dasharray:none"
       id="path3817"
       d="m 634.67764,202.5905 c 0.78024,-0.0384 1.56556,-0.0184 2.34072,-0.11521 2.22151,-0.27745 4.57432,-0.90229 6.41718,-2.23026 1.60595,-1.15726 1.53421,-1.08432 0.79298,-1.0254 1.03576,-2.05948 -1.3449,-2.67703 -2.92996,-2.94018 -5.24756,0.14065 -7.21801,2.79162 -9.67932,6.91121 -1.58666,3.80682 -2.3066,8.52276 0.25391,12.12816 0.38904,0.5478 0.93105,0.96899 1.39657,1.45348 1.92654,1.30731 4.09564,1.54638 6.37571,1.51864 0.90732,-0.011 1.84716,0.0794 2.71605,-0.18212 1.03111,-0.3103 1.90845,-0.99784 2.86268,-1.49676 0,0 0.003,0.11996 0.003,0.11996 l 0,0 c -4.98555,2.59209 -8.32647,5.23705 -13.68884,1.67946 -0.53517,-0.60563 -1.15884,-1.14334 -1.60552,-1.8169 -2.69068,-4.05739 -2.07478,-9.21971 -0.42451,-13.5096 0.47079,-0.85627 0.83853,-1.7779 1.41237,-2.56881 2.75053,-3.79096 6.49786,-6.63986 11.32849,-6.49514 3.1705,0.61974 5.92262,1.84241 4.47926,5.58329 -0.62051,0.64353 -1.1834,1.34809 -1.86152,1.9306 -2.86605,2.46196 -7.25747,2.52298 -10.75619,3.14681 0,0 0.56696,-2.09123 0.56696,-2.09123 z"
       inkscape:connector-curvature="0"
       transform="translate(0,308.2677)" />
    <path
       style="fill:#000000;fill-opacity:1;stroke:#000000;stroke-width:2.33699989;stroke-miterlimit:4;stroke-opacity:1;stroke-dasharray:none"
       id="path3845"
       d="m 285.32678,200.98995 c 4.8936,-0.36763 9.79504,-0.53979 14.69653,-0.27175 3.88232,0.35778 7.75749,0.79476 11.633,1.22064 3.8071,0.4182 7.62152,0.74568 11.44579,0.95113 4.65534,0.21329 9.31677,0.15258 13.97466,0.0886 5.55692,-0.10865 11.11041,-0.33736 16.6586,-0.66276 6.09614,-0.37248 12.19744,-0.6523 18.29995,-0.89561 4.56311,-0.15512 9.12439,-0.31333 13.68305,-0.5691 5.49202,-0.27425 10.96632,-0.76351 16.43894,-1.28735 4.70129,-0.49589 9.38786,-1.08865 14.10591,-1.40115 5.30589,-0.2923 10.61882,-0.41977 15.92605,-0.6822 4.53822,-0.26723 9.08289,-0.33875 13.62775,-0.34999 3.80737,0.0148 7.61473,0.0259 11.42212,0.0329 3.91653,0.009 7.83304,0.004 11.74956,-0.007 3.49079,0.0861 6.97808,0.261 10.46823,0.37231 3.53973,0.11734 7.06847,0.43 10.60546,0.60446 2.79371,0.12127 5.59238,0.0425 8.37963,0.28794 1.52049,0.18108 3.01666,0.4809 4.54729,0.56466 1.55865,0.0541 3.1184,0.009 4.67724,-0.0126 1.01834,-0.0197 2.0336,-0.052 3.04616,0.0699 0.67143,0.0976 1.34969,0.11337 2.02555,0.15332 -1.16872,1.13178 -0.4983,0.77738 -1.96867,1.14015 0,0 0.003,-0.0399 0.003,-0.0399 l 0,0 c 1.30793,-0.58363 0.79837,-0.75711 1.61483,0.004 -0.68932,-0.0348 -1.37421,-0.14495 -2.0625,-0.19846 -0.98478,-0.0919 -1.97217,-0.0637 -2.96032,-0.0638 -1.57385,0.009 -3.14826,0.0321 -4.7218,-0.009 -1.53515,-0.0979 -3.03237,-0.41511 -4.55678,-0.60788 -2.77028,-0.27071 -5.55346,-0.2317 -8.33276,-0.34071 -3.5293,-0.18696 -7.04874,-0.53246 -10.58228,-0.63481 -3.4849,-0.10216 -6.96771,-0.23854 -10.45184,-0.36083 -3.91563,-0.009 -7.83123,-0.0106 -11.74687,-0.005 -3.80714,-6e-4 -7.61424,-0.0154 -11.42133,-0.0345 -4.52666,-0.0157 -9.05441,0.024 -13.57577,0.26691 -5.3091,0.2479 -10.62252,0.40807 -15.92762,0.73754 -4.70013,0.33879 -9.38048,0.8747 -14.0714,1.31841 -5.48512,0.52593 -10.97075,1.03453 -16.47352,1.34191 -4.55422,0.26591 -9.11142,0.38732 -13.67226,0.47927 -6.09644,0.18096 -12.18941,0.47255 -18.27666,0.85327 -5.55533,0.32999 -11.11615,0.57026 -16.68093,0.66337 -4.67016,0.0714 -9.34345,0.12265 -14.0113,-0.0844 -3.83073,-0.21389 -7.65118,-0.55413 -11.4645,-0.97799 -3.8639,-0.42194 -7.72373,-0.87819 -11.59085,-1.26858 -4.88289,-0.29237 -9.78289,-0.21049 -14.64649,0.35127 0,0 0.16741,-0.73711 0.16741,-0.73711 z"
       inkscape:connector-curvature="0"
       transform="translate(0,308.2677)" />
    <path
       style="fill:#000000;fill-opacity:1;stroke:#000000;stroke-width:2.33699989;stroke-miterlimit:4;stroke-opacity:1;stroke-dasharray:none"
       id="path3847"
       d="m 290.83323,190.85161 c 3.88937,-3.45491 7.94352,-6.72221 12.12376,-9.81771 0.34318,-0.0609 1.56249,-1.43947 2.02935,-0.99751 0,0 -0.0794,0.42381 -0.0794,0.42381 l 0,0 c -0.10867,0.69222 -1.58342,0.87395 -1.83788,1.45719 -4.16909,3.10768 -8.30494,6.2889 -12.02955,9.92894 0,0 -0.2063,-0.99472 -0.2063,-0.99472 z"
       inkscape:connector-curvature="0"
       transform="translate(0,308.2677)" />
    <path
       style="fill:#000000;fill-opacity:1;stroke:#000000;stroke-width:2.33699989;stroke-miterlimit:4;stroke-opacity:1;stroke-dasharray:none"
       id="path3849"
       d="m 292.22039,177.32812 c 3.13018,4.23155 6.32678,8.42763 10.06195,12.14785 0.45779,0.38418 0.7863,0.71405 1.29023,0.99492 0.0556,0.031 0.23385,0.0168 0.1828,0.0548 -0.51814,0.38504 -0.44944,0.19557 -0.45889,-0.089 0,0 0.0341,-0.0208 0.0341,-0.0208 l 0,0 c 1.0823,1.03404 0.0168,1.19991 -0.86945,0.42358 -0.27591,-0.2417 -0.53542,-0.50151 -0.80314,-0.75227 -3.6043,-3.86659 -6.77395,-8.09195 -10.11108,-12.18503 0,0 0.67344,-0.57395 0.67344,-0.57395 z"
       inkscape:connector-curvature="0"
       transform="translate(0,308.2677)" />
    <path
       style="fill:#000000;fill-opacity:1;stroke:#000000;stroke-width:2.33699989;stroke-miterlimit:4;stroke-opacity:1;stroke-dasharray:none"
       id="path3851"
       d="m 299.02375,173.936 c -0.27699,5.69803 -1.1328,11.34674 -1.93936,16.98808 -0.35389,1.21217 -0.15871,2.59805 -0.66041,3.77056 0,0 -0.8261,0.008 -0.8261,0.008 l 0,0 c 0.54901,-1.10368 0.37578,-2.50684 0.7841,-3.64794 0.93811,-5.59054 1.83247,-11.22244 1.89862,-16.90294 0,0 0.74315,-0.21591 0.74315,-0.21591 z"
       inkscape:connector-curvature="0"
       transform="translate(0,308.2677)" />
    <path
       style="fill:#000000;fill-opacity:1;stroke:#000000;stroke-width:2.33699989;stroke-miterlimit:4;stroke-opacity:1;stroke-dasharray:none"
       id="path3853"
       d="m 291.8901,184.33825 c 5.60208,0.63007 11.23504,0.92725 16.86779,1.09681 1.31578,-0.20621 2.59375,0.27074 3.87006,0.34522 0,0 -0.0103,0.0387 -0.0103,0.0387 l 0,0 c -1.35519,0.16671 -2.67609,0.52538 -4.07374,0.2976 -5.64796,-0.20979 -11.28338,-0.63415 -16.92251,-1.00257 0,0 0.2687,-0.77572 0.2687,-0.77572 z"
       inkscape:connector-curvature="0"
       transform="translate(0,308.2677)" />
    <path
       style="fill:#000000;fill-opacity:1;stroke:#000000;stroke-width:2.33699989;stroke-miterlimit:4;stroke-opacity:1;stroke-dasharray:none"
       id="path3855"
       d="m 494.3086,188.11075 c 2.58092,-1.85323 5.10383,-3.7626 7.18908,-6.1689 1.09487,-1.33949 1.92839,-2.85976 2.98271,-4.22933 0.26668,-0.32415 0.48553,-0.68214 1.05625,0.34793 0.0108,0.0195 -0.98615,5.5638 -1.03387,5.88245 -0.33928,2.47994 -0.54517,4.97933 -0.49246,7.48283 -0.0143,0.0363 -0.0285,0.0727 -0.0428,0.109 0,0 -0.90214,0.34654 -0.90214,0.34654 l 0,0 c -0.0254,-0.0478 -0.0507,-0.0956 -0.0761,-0.14335 -0.0577,-2.5476 0.40808,-5.09448 0.62828,-7.62315 0.082,-0.60094 0.53262,-5.52776 0.88747,-5.88531 0.24998,-0.25188 1.53474,-0.69136 1.008,-0.34255 -1.19736,1.27924 -1.97231,2.87045 -3.0868,4.21567 -2.30855,2.71139 -5.18442,4.76138 -7.99721,6.91601 0,0 -0.12042,-0.90784 -0.12042,-0.90784 z"
       inkscape:connector-curvature="0"
       transform="translate(0,308.2677)" />
  </g>
</svg>
